<svg xmlns="http://www.w3.org/2000/svg" width="310" height="310" viewBox="0 0 310 310" id="adobe-reader">
  <defs>
    <linearGradient id="a" x1="-.476" x2="-.473" y1="-.463" y2="-.463" gradientUnits="objectBoundingBox">
      <stop offset="0" stop-color="#370609"></stop>
      <stop offset="1" stop-color="#750e12"></stop>
    </linearGradient>
  </defs>
  <g transform="translate(-67.5 -67.5)">
    <path fill="#d21921" d="M215.2,200.333c-4.756,12.825-11.381,25.564-19.7,41.7-2.888,5.605-6.2,12.06-9.767,18.94-.849,1.784-1.784,3.482-2.633,5.1a230.79,230.79,0,0,1,42.721-14.778,255.894,255.894,0,0,1,27.942-5.521c-12.825-9-22.762-20.044-35.077-39.323-1.189-1.868-2.293-3.822-3.482-6.115m-89.6,121.112c1.529,0,5.436-1.953,15.712-11.041,12.74-11.3,40.342-61.321,60.726-103.022,2.973-6.03,5.69-12.145,8.153-18.09-10.192-26.838-10.107-57.159-9.852-65.822.255-7.729,5.605-13.079,13.079-13.079a15.354,15.354,0,0,1,6.37,1.359,11.556,11.556,0,0,1,6.2,6.71c2.463,6.115,1.529,14.608-.595,19.449q0,.127-.255.255l-.255.17-.085-.255a4.1,4.1,0,0,1-.17-2.038v-.679a37.633,37.633,0,0,0-4.332-15.967l-.17-.34c-1.019-2.038-2.463-5.1-4.926-5.181h-.17c-1.7,0-2.8.595-3.737,8.833-1.444,12.74.51,28.877,5.86,47.986,6.03-18.005,7.219-28.537,7.219-28.622h.51c-.425,15.8-1.784,28.537-4.332,39.918,8.493,25.055,19.619,36.436,27.008,43.91.934.934,1.784,1.868,2.633,2.718,7.389,7.814,18.345,13.759,19.11,13.844.17,0,1.1-.085,2.378-.255,5.436-.595,18.005-2.123,28.792-2.378,1.614-.085,3.227-.085,4.756-.085,3.058,0,5.86.085,8.578.255A56.615,56.615,0,0,1,327.39,242.2c4.926,1.614,8.068,4.756,8.918,8.918a12.774,12.774,0,0,1,.255,2.463v.255a4.235,4.235,0,0,1-.255,2.038.531.531,0,0,1-.51.34c-.51,0-1.019-.595-1.529-1.189a11.551,11.551,0,0,0-2.973-2.293,28.784,28.784,0,0,0-7.559-3.312A55.908,55.908,0,0,0,312.7,247.81c-2.208-.085-4.586-.17-7.134-.17-1.868,0-3.737,0-5.605.085-3.227.085-6.879.255-11.3.595a13.886,13.886,0,0,0-1.868.17c-1.529.085-3.058.255-4.586.255a5.127,5.127,0,0,0-1.953.17,13.422,13.422,0,0,0,2.718,1.444c.34.17.764.34,1.189.595a199.1,199.1,0,0,0,31.595,10.871,36.307,36.307,0,0,0,8.918,1.274c6.625,0,8.918-2.633,9.173-2.888a1.9,1.9,0,0,1,1.359-.849.718.718,0,0,1,.51.17l.085.085v.17c-.764,6.625-6.879,10.447-16.9,10.447-8.323,0-18.94-2.463-31.595-7.389a190.744,190.744,0,0,1-24.715-11.466c-14.014,2.633-60.9,11.805-81.874,19.195-22.592,42.211-36.266,50.195-42.126,53.592l-.34.17a17.639,17.639,0,0,1-8.833,2.378,16.822,16.822,0,0,1-11.975-4.926,6.592,6.592,0,0,1-1.953-4.926c0-5.266,4.841-12.485,14.778-22.252,10.277-10.022,30.49-18.77,30.66-18.855l.255.425c-.085.085-6.795,6.115-19.619,18.43-13.929,13.334-16.477,22.677-16.9,25.31-.085.595-.085,1.1.17,1.274a1.186,1.186,0,0,0,.764.255M377.5,67.5H67.5v310h310V67.5"></path>
    <path fill="url(#a)" d="M191.621,273.764c.849-1.614,1.7-3.312,2.633-5.1,3.482-6.879,6.795-13.334,9.767-18.94,8.323-16.137,15.033-28.962,19.7-41.7q1.784,3.312,3.567,6.115c12.315,19.279,22.252,30.405,35.077,39.323a255.9,255.9,0,0,0-27.942,5.521c-19.959,5.011-34.142,10.7-42.805,14.778M221.941,118c-7.474,0-12.825,5.351-13.079,13.079-.255,8.663-.34,38.984,9.852,65.822q-3.694,8.918-8.153,18.09c-20.3,41.7-47.986,91.726-60.726,103.022-10.277,9.173-14.268,11.041-15.712,11.041a.836.836,0,0,1-.679-.255,1.852,1.852,0,0,1-.17-1.274c.425-2.548,2.888-11.975,16.9-25.31,12.91-12.23,19.534-18.345,19.619-18.43l-.255-.425c-.17.085-20.384,8.833-30.66,18.855C128.941,311.9,124.1,319.2,124.1,324.469a6.932,6.932,0,0,0,1.953,4.926,16.822,16.822,0,0,0,11.975,4.926,17.639,17.639,0,0,0,8.833-2.378l.34-.17c5.86-3.4,19.534-11.381,42.126-53.592,20.978-7.389,67.775-16.562,81.874-19.195a190.747,190.747,0,0,0,24.715,11.466c12.655,4.926,23.271,7.389,31.595,7.389,10.022,0,16.137-3.822,16.9-10.447v-.17l-.085-.085a.744.744,0,0,0-.51-.17,2.033,2.033,0,0,0-1.359.849c-.255.34-2.548,2.888-9.173,2.888a36.307,36.307,0,0,1-8.918-1.274,199.1,199.1,0,0,1-31.595-10.871c-.425-.17-.764-.425-1.189-.595-1.1-.595-2.548-1.274-2.718-1.444a5.127,5.127,0,0,1,1.953-.17,40.381,40.381,0,0,0,4.586-.255c.595-.085,1.274-.085,1.868-.17,4.416-.255,8.068-.425,11.3-.595,1.868-.085,3.737-.085,5.605-.085,2.548,0,4.926.085,7.134.17a45.662,45.662,0,0,1,11.041,1.614,28.782,28.782,0,0,1,7.559,3.312,15.434,15.434,0,0,1,2.973,2.293c.51.595,1.019,1.189,1.529,1.189a.614.614,0,0,0,.51-.34,4.11,4.11,0,0,0,.255-2.038v-.255a12.774,12.774,0,0,0-.255-2.463c-.849-4.162-4.077-7.3-8.918-8.918a56.616,56.616,0,0,0-13.589-2.208c-2.718-.17-5.521-.255-8.578-.255-1.614,0-3.227,0-4.756.085-10.786.34-23.441,1.784-28.792,2.378-1.274.17-2.208.255-2.378.255-.849-.085-11.721-6.03-19.11-13.844-.764-.849-1.7-1.784-2.633-2.718-7.389-7.474-18.6-18.855-27.008-43.91,2.548-11.381,3.907-24.036,4.332-39.918h-.51c0,.085-1.274,10.616-7.219,28.622-5.266-19.025-7.219-35.162-5.86-47.986.934-8.238,2.038-8.833,3.737-8.833h.17c2.463.085,3.907,3.142,4.926,5.181l.17.34a39.919,39.919,0,0,1,4.332,15.967v.679a5.39,5.39,0,0,0,.17,2.038l.085.255.255-.17c.17-.085.17-.17.255-.255,2.123-4.841,3.058-13.249.595-19.449a11.556,11.556,0,0,0-6.2-6.71A16.029,16.029,0,0,0,221.941,118" transform="translate(-8.529 -7.61)"></path>
    <path fill="#fff" d="M138.149,333.816a15.839,15.839,0,0,1-11.466-4.756,6.147,6.147,0,0,1-1.784-4.5c0-5.1,4.841-12.23,14.608-21.827,8.238-8.068,23.016-15.288,28.367-17.751-2.718,2.463-8.748,8.068-17.921,16.816-14.1,13.419-16.647,23.016-17.071,25.649a2.22,2.22,0,0,0,.255,1.784,1.213,1.213,0,0,0,1.1.425c2.378,0,7.814-3.737,16.137-11.211,12.74-11.381,40.512-61.49,60.811-103.277,2.973-6.115,5.69-12.23,8.238-18.175v-.17c-10.192-26.838-10.107-57.074-9.852-65.737.255-7.389,5.351-12.485,12.485-12.485a16.2,16.2,0,0,1,6.2,1.274,11.167,11.167,0,0,1,5.86,6.37c2.208,5.605,1.529,13.164-.255,18.005V142.89c-.085-5.1-1.614-10.532-4.332-16.222l-.17-.34c-1.019-2.208-2.633-5.436-5.436-5.521h-.17c-2.463,0-3.482,1.444-4.332,9.427-1.444,12.995.595,29.471,6.115,49.005l.34,1.189.425-1.1a195.126,195.126,0,0,0,6.625-24.036c-.595,13.334-1.868,24.29-4.162,34.312v.17c8.493,25.31,19.789,36.775,27.178,44.334.934.934,1.784,1.868,2.633,2.718,7.3,7.729,18.685,14.1,19.619,14.1.17,0,.849-.085,2.463-.255,5.351-.595,18.005-2.123,28.792-2.378,1.614-.085,3.142-.085,4.756-.085,3.058,0,5.775.085,8.493.255a54.645,54.645,0,0,1,13.419,2.208c4.671,1.529,7.729,4.5,8.578,8.493.17.849.17,1.614.255,2.378v.34a4.135,4.135,0,0,1-.17,1.784h0s-.255-.085-.934-.934a13.911,13.911,0,0,0-3.058-2.463,33.348,33.348,0,0,0-7.729-3.4,47.019,47.019,0,0,0-11.211-1.614c-2.293-.17-4.586-.17-7.219-.17-1.868,0-3.737,0-5.69.085-3.312.085-6.879.255-11.3.595a13.888,13.888,0,0,0-1.868.17c-1.529.085-3.058.255-4.586.255-1.784,0-2.463.17-2.548.679-.17.595.679,1.019,2.973,2.208l1.189.595c4.332,2.208,18.6,7.644,31.679,10.956a36.936,36.936,0,0,0,9,1.274c6.795,0,9.173-2.633,9.6-3.142s.764-.679.849-.679c-.849,6.115-6.795,9.6-16.307,9.6-8.238,0-18.77-2.463-31.34-7.389a190.749,190.749,0,0,1-24.715-11.466l-.085-.085h-.085c-9.852,1.869-60.132,11.381-82.214,19.195h-.085l-.085.085c-22.677,42.211-36.181,50.11-42.041,53.507l-.34.17A17.983,17.983,0,0,1,138.149,333.816Zm85.271-126.463c-4.756,12.91-11.381,25.819-19.874,42.211-2.888,5.605-6.2,11.975-9.767,18.94-1.019,1.953-1.953,3.907-2.973,5.775l-.425.934,1.019-.51c8.493-4.077,22.931-9.937,43.315-15.033a250.316,250.316,0,0,1,28.537-5.605l.934-.085-.764-.51c-13.079-9-23.016-20.044-35.416-39.578-1.274-2.038-2.548-4.162-3.822-6.625l-.425-.764Z" transform="translate(-8.649 -7.7)"></path>
    <path fill="#fff" d="M383.927,310.855a3.227,3.227,0,1,1,3.227-3.227A3.226,3.226,0,0,1,383.927,310.855Zm0-5.86a2.633,2.633,0,1,0,2.633,2.633A2.646,2.646,0,0,0,383.927,304.995Z" transform="translate(-47.195 -35.697)"></path>
    <path fill="#fff" d="M382.9,305.885a3.806,3.806,0,0,1,1.019-.085,1.537,1.537,0,0,1,1.189.34,1.077,1.077,0,0,1,.34.764,1.02,1.02,0,0,1-.764,1.019h0c.34.085.51.425.595.849a9.4,9.4,0,0,0,.34,1.1h-.51a3.286,3.286,0,0,1-.255-1.019c-.085-.595-.34-.764-.849-.764h-.51v1.784h-.51v-3.992Zm.51,1.868h.51c.595,0,.934-.34.934-.764,0-.51-.425-.764-.934-.764-.255,0-.425,0-.51.085Z" transform="translate(-47.526 -35.908)"></path>
  </g>
</svg>
