<svg xmlns="http://www.w3.org/2000/svg" height="800" width="1200" viewBox="-37.35 -12.2929 323.7 73.7574"><path d="M39.5477 0H0v9.6248l3.624 14.3129 11.3368.6481 9.6246-9.6244 19.0306-4.0782z" fill="#00c425"/><path d="M0 9.6248v39.5468h9.6234l16.093-1.3374-1.1311-13.624z" fill="#3af23a"/><path d="M9.6234 49.1716h39.5482v-9.624l-4.2052-12.8029L34.21 24.5858z" fill="#006446"/><path d="M238.348 19.5072l-8.6943 7.9122 8.6944 7.9606v4.5845h-.2841l-12.9036-11.7149v11.1359h-3.7411V5.6731h3.7411v21.0564l12.846-11.6913h.3417zM69.6499 39.3855H88.739V35.619H73.537V6.7798h-3.8871zm32.2865-24.2977c-5.8648 0-11.2004 4.763-11.2004 12.4355 0 7.4515 4.894 12.3914 11.905 12.3914 3.1302 0 6.0403-.7885 8.6416-2.6847v-4.0227c-2.7335 2.2927-5.7808 3.262-8.5151 3.262-4.2241 0-7.9521-2.6127-8.2952-7.5064h17.8254c.0444-.4841.138-1.5277.138-1.9248 0-7.849-4.7234-11.9503-10.4993-11.9503zm.0378 3.4024c3.3075 0 6.671 2.142 6.8023 7.2133H94.4722c.2208-3.9242 3.2237-7.2133 7.5019-7.2133zm62.7749-3.4024c-3.1746 0-5.4673 1.6764-6.8337 4.1452-1.1479-2.6454-3.2633-4.1452-6.6596-4.1452-2.9543 0-5.1582 1.7203-6.349 4.013h-.0889l-.4383-3.5276h-2.9545v23.8123h3.7906V24.3478c0-2.9106 1.808-5.6443 5.1138-5.6443 3.2206 0 4.6314 1.897 4.6314 5.3356v15.3462h3.7904v-15.302c0-2.7784 1.854-5.3798 5.073-5.3798 3.2616 0 4.6724 1.897 4.6724 5.3356v15.3462h3.7937V23.5105c0-4.9834-2.3387-8.4227-7.5413-8.4227zm22.8555 0c-5.6871 0-10.9803 4.807-10.9803 12.4355 0 7.5397 5.2932 12.3914 10.9803 12.3914 3.572 0 6.924-1.6763 8.7304-4.9842h.0444l.4418 4.4552h3.0876V15.5732h-3.0876l-.4418 4.454h-.0444c-1.8063-3.263-5.1584-4.9394-8.7304-4.9394zm.7063 3.5276c4.4966 0 7.893 3.616 7.893 8.8638 0 5.2464-3.3964 8.8632-7.893 8.8632-4.4095 0-7.8929-3.5724-7.8929-8.819 0-5.336 3.4834-8.908 7.893-8.908zm27.7645-3.3071c-2.0744 0-5.2046.9705-6.8369 4.0572h-.0427l-.3974-3.7923h-3.0416v23.8123h3.7905v-13.714c0-5.5119 4.454-7.2198 8.1146-6.4698v-3.7612c-.4845-.0878-.9707-.1322-1.5866-.1322zm-79.536-.2701h-.302l-9.9506 9.9232-9.931-9.9232h-.3022v4.8087l7.6548 7.66-7.6548 7.6087v4.849h.3065l9.8807-9.9683 9.9902 9.9682h.3086v-4.8862l-7.722-7.6433 7.722-7.7758v-4.621zm101.8105-8.84V5.673h4.1336v.525h-1.754v4.1579h-.6255V6.1982zm6.2275-.5251l1.7834 3.9356 1.7886-3.9356H249v4.6829h-.5865V6.454h-.0114l-1.7702 3.902h-.5338l-1.7704-3.9022h-.01v3.9022h-.5912V5.673h.8507z" fill="#32323c"/><path d="M49.1716 39.5477V0h-9.624L24.5855 14.9614z" fill="#008a44"/></svg>